<?xml version="1.0" encoding="UTF-8" standalone="no"?>
<svg
   xmlns:dc="http://purl.org/dc/elements/1.1/"
   xmlns:cc="http://creativecommons.org/ns#"
   xmlns:rdf="http://www.w3.org/1999/02/22-rdf-syntax-ns#"
   xmlns:svg="http://www.w3.org/2000/svg"
   xmlns="http://www.w3.org/2000/svg"
   xmlns:sodipodi="http://sodipodi.sourceforge.net/DTD/sodipodi-0.dtd"
   xmlns:inkscape="http://www.inkscape.org/namespaces/inkscape"
   version="1.1"
   id="svg2"
   width="637.58276"
   height="404.03333"
   viewBox="0 0 637.58276 404.03333"
   sodipodi:docname="no-birb.svg"
   inkscape:version="1.0.2 (e86c870879, 2021-01-15)">
  <metadata
     id="metadata8">
    <rdf:RDF>
      <cc:Work
         rdf:about="">
        <dc:format>image/svg+xml</dc:format>
        <dc:type
           rdf:resource="http://purl.org/dc/dcmitype/StillImage" />
        <dc:title></dc:title>
      </cc:Work>
    </rdf:RDF>
  </metadata>
  <defs
     id="defs6" />
  <sodipodi:namedview
     pagecolor="#ffffff"
     bordercolor="#666666"
     borderopacity="1"
     objecttolerance="10"
     gridtolerance="10"
     guidetolerance="10"
     inkscape:pageopacity="0"
     inkscape:pageshadow="2"
     inkscape:window-width="1920"
     inkscape:window-height="1024"
     id="namedview4"
     showgrid="false"
     fit-margin-top="0"
     fit-margin-left="0"
     fit-margin-right="0"
     fit-margin-bottom="0"
     inkscape:zoom="1.5506173"
     inkscape:cx="318.99999"
     inkscape:cy="202.0174"
     inkscape:window-x="0"
     inkscape:window-y="0"
     inkscape:window-maximized="1"
     inkscape:current-layer="g10" />
  <g
     inkscape:groupmode="layer"
     inkscape:label="Image"
     id="g10"
     transform="translate(-1.0000149,-0.48259587)">
    <path
       style="fill:#020202;stroke:none"
       d="m 1.0000149,24.51592 v 2 c 13.1427001,4.4461 27.7129001,9.0299 39.0000001,17.2894 30.021505,21.96869 19.224905,59.52759 17.089505,90.71059 -0.9652,14.095 1.2035,28.408 4.7948,42 15.783,59.737 73.9707,95.353 131.11569,106 v 1 c -10.383,0.474 -19.52199,6.983 -29.99999,6.971 -8.99601,-0.011 -16.96101,-6.047 -25.99901,-5.777 -5.05299,0.152 -7.87499,3.18 -9.00099,7.806 7.849,-3.923 18.45399,-0.776 24.99999,5 -14.15,-1.556 -41.93399,2.07 -44.99999,19 19.762,-11.896 47.13299,-16.193 70,-18 -4.416,10.055 -26.47201,25.736 -13,36 -1.52,-9.416 5.835,-12.494 11.829,-18.289 4.898,-4.735 8.21899,-11.087 14.17099,-14.706 9.011,-5.479 21.953,-2.809 32,-4.621 7.758,-1.398 13.188,-8.043 21,-5.384 3.888,-6.354 15.455,-4 22,-4 -7.559,15.889 -23.205,28.152 -34.83,41 -7.837,8.661 -15.198,19.595 -26.17,24.583 -13.951,6.342 -32.15799,-10.2 -41.99999,6.417 8.948,-4.646 12.026,1.076 20.99999,2 v 1 c -13.62499,3.124 -41.175,0.799 -46,17 l 36.00001,-5.805 35.99999,-10.195 -19,41 c 13.515,-9.947 18.303,-28.033 31.039,-38.481 9.129,-7.489 19.377,-6.668 29.961,-9.824 10.674,-3.182 11.136,-10.054 22,-2.695 -4.411,-21.008 -31.11,-5.606 -45,-5 13.659,-24.025 29.834,-46.144 54,-61.29 15.565,-9.755 34.058,-14.88 50,-24.313 16.109,-9.532 29.964,-25.214 47,-32.524 16.532,-7.095 35.692,-5.433 53,-9.527 10.823,-2.561 21.637,-9.372 33,-9.087 37.925,0.951 76.277,6.868 114,10.907 15.985,1.711 39.481,7.611 54.98,2.44 7.38,-2.463 1.911,-7.059 -2.98,-7.606 11.315,-12.377 2.591,-28.27 -13,-29.829 -7.626,-0.763 -15.37,0.385 -23,-0.341 -43.655,-4.154 -87.077,-11.83 -131,-11.83 v -1 l 41,-7 c -5.18,-11.008 -20.272,-12.614 -31,-14.414 -26.326,-4.416 -55.6,-5.07 -80,-16.844 -27.719,-13.377 -56.629,-21.76 -85,-33.345 -18.018,-7.3587 -34.748,-17.5246 -53,-24.3469 -18.058,-6.7496 -37.329,-10.1005 -55,-17.912 C 162.75302,43.30432 142.36201,-1.5658149 94.000025,0.55528315 75.87092,1.3504181 63.08932,13.97022 46.000015,17.05142 c -15.7478,2.8393 -30.6167,-1.9323 -45.0000001,7.4645 z"
       id="path837" />
    <text
       xml:space="preserve"
       style="font-size:16px;line-height:1.25;font-family:Arial;-inkscape-font-specification:Arial;letter-spacing:0px;word-spacing:0px;writing-mode:lr-tb"
       x="140.33134"
       y="267.50638"
       id="text841"><tspan
         sodipodi:role="line"
         id="tspan839"
         x="140.33134"
         y="267.50638"
         style="font-size:253.333px;fill:#ffffff;fill-opacity:1">?</tspan></text>
  </g>
</svg>
